<svg xmlns="http://www.w3.org/2000/svg" width="162.434" height="64.634" viewBox="0 0 162.434 64.634">
  <g id="icusa_logo_nav_bar" transform="translate(0 0)">
    <g id="Grupo_65" data-name="Grupo 65" transform="translate(0 0)">
      <path id="Trazado_6" data-name="Trazado 6" d="M100.274,9.329,86.172.9a6.311,6.311,0,0,0-6.487,0l-14.1,8.432a6.786,6.786,0,0,0-3.242,5.82V32.013a6.791,6.791,0,0,0,3.242,5.82l14.1,8.432a6.314,6.314,0,0,0,6.487,0l14.1-8.432a6.789,6.789,0,0,0,3.244-5.82V15.149a6.784,6.784,0,0,0-3.244-5.82M93.058,9.1l5.508,3.293a3.177,3.177,0,0,1,1.391,1.828,28.081,28.081,0,0,0-6.9-1.838Zm0,9.609V15.962c4.149.7,6.275,1.7,6.909,2.266-.574.51-2.521,1.535-6.977,2.28.021-.6.068-1.2.068-1.8m-.737,8.416c4.17.72,6.255,1.753,6.816,2.313-.622.63-3.064,1.788-7.9,2.492.436-1.587.8-3.186,1.08-4.8M76.248,7.036l5.143-3.077a3,3,0,0,1,3.073,0l5.178,3.1v4.931c-2.151-.2-4.382-.337-6.716-.337-2.319,0-4.536.132-6.677.335Zm0,8.5c2.13-.212,4.351-.346,6.677-.346,2.342,0,4.577.134,6.716.348v3.172c0,1.492-.1,2.978-.239,4.456a65.028,65.028,0,0,0-6.619-.329c-2.18,0-4.269.128-6.3.325-.142-1.478-.239-2.96-.239-4.452ZM74.663,31.974c-5.057-.7-7.6-1.891-8.236-2.538.574-.578,2.75-1.644,7.133-2.365a49.426,49.426,0,0,0,1.1,4.9M67.289,12.392l5.544-3.316v3.295a27.865,27.865,0,0,0-6.919,1.811,3.168,3.168,0,0,1,1.375-1.789m5.544,3.561v2.752c0,.6.049,1.206.07,1.809-4.485-.747-6.438-1.778-7.014-2.287.636-.572,2.768-1.57,6.944-2.274m-7.08,6.24a24.653,24.653,0,0,0,5.7,1.659,21.361,21.361,0,0,0-5.7,1.865Zm1.537,12.575a3.14,3.14,0,0,1-1.239-1.451c2.688,1.346,6.6,2.017,9.706,2.35L77.375,40.8Zm19.957-1.327-.006.021-3.12,9.885a2.957,2.957,0,0,1-2.344.018l-3.12-9.887,0-.016-.263-.831a46.1,46.1,0,0,1-1.43-5.969c1.871-.175,3.8-.292,5.824-.292a61.4,61.4,0,0,1,6.141.325A46.242,46.242,0,0,1,87.5,32.633Zm11.32,1.327-10.042,6,1.622-5.141c3.147-.358,7.127-1.083,9.745-2.527a3.154,3.154,0,0,1-1.325,1.663m1.537-8.879a20.088,20.088,0,0,0-5.863-2.007,24.887,24.887,0,0,0,5.863-1.688Z" transform="translate(58.916 0)" fill="#101820"/>
      <rect id="Rectángulo_3" data-name="Rectángulo 3" width="6.273" height="26.737" transform="translate(0 37.178)" fill="#101820"/>
      <path id="Trazado_7" data-name="Trazado 7" d="M15.693,26.939a7.064,7.064,0,0,1,5.361-2.34,7.355,7.355,0,0,1,2.916.6,5.259,5.259,0,0,1,2.3,1.85l4.229-4.382a10.266,10.266,0,0,0-4.281-2.925,15.427,15.427,0,0,0-10.887-.019,13.073,13.073,0,0,0-4.446,2.815,12.9,12.9,0,0,0-2.972,4.435,15.115,15.115,0,0,0-1.078,5.818,15.152,15.152,0,0,0,1.058,5.74,13.423,13.423,0,0,0,2.918,4.476A12.948,12.948,0,0,0,15.2,45.9a14.676,14.676,0,0,0,5.524,1.019,13.4,13.4,0,0,0,5.8-1.19A12.316,12.316,0,0,0,30.752,42.5l-4.339-4.229a6.371,6.371,0,0,1-2.223,1.965,6.7,6.7,0,0,1-3.246.755,7.161,7.161,0,0,1-2.955-.6A6.828,6.828,0,0,1,15.675,38.7a7.782,7.782,0,0,1-1.515-2.589,9.71,9.71,0,0,1-.549-3.322,9.424,9.424,0,0,1,.549-3.266,7.856,7.856,0,0,1,1.533-2.589" transform="translate(6.456 17.715)" fill="#101820"/>
      <path id="Trazado_8" data-name="Trazado 8" d="M22.367,19.114V35.768a12.139,12.139,0,0,0,.766,4.4,9.688,9.688,0,0,0,2.186,3.4,9.993,9.993,0,0,0,3.464,2.21,12.646,12.646,0,0,0,4.594.794,12.677,12.677,0,0,0,4.577-.794,10.305,10.305,0,0,0,3.519-2.21,9.631,9.631,0,0,0,2.243-3.4,11.857,11.857,0,0,0,.786-4.4V19.114H38.264V35.239a8.281,8.281,0,0,1-.253,2.077,4.981,4.981,0,0,1-.84,1.756A4.117,4.117,0,0,1,35.658,40.3a5.794,5.794,0,0,1-4.483,0,3.981,3.981,0,0,1-1.5-1.227,5.415,5.415,0,0,1-.838-1.756,7.7,7.7,0,0,1-.274-2.077V19.114Z" transform="translate(21.139 18.065)" fill="#101820"/>
      <path id="Trazado_9" data-name="Trazado 9" d="M49.008,40.892a3.3,3.3,0,0,1-1.15.492,5.966,5.966,0,0,1-1.348.15,6.591,6.591,0,0,1-3.081-.811,7.6,7.6,0,0,1-2.5-2.021l-4.083,4.3a11.28,11.28,0,0,0,4.3,2.852,14.749,14.749,0,0,0,5.361,1,12.916,12.916,0,0,0,3.682-.529,9.29,9.29,0,0,0,3.172-1.624,7.921,7.921,0,0,0,2.208-2.776,9.026,9.026,0,0,0,.821-3.984,6.666,6.666,0,0,0-.766-3.342,7.569,7.569,0,0,0-1.933-2.249A10.167,10.167,0,0,0,51.1,30.9q-1.421-.549-2.735-1-.913-.3-1.64-.585a7.024,7.024,0,0,1-1.258-.622,2.467,2.467,0,0,1-.8-.794,2.168,2.168,0,0,1-.274-1.132,2.268,2.268,0,0,1,.348-1.3,2.925,2.925,0,0,1,.856-.831,3.224,3.224,0,0,1,1.15-.436A7.335,7.335,0,0,1,48,24.089a5.727,5.727,0,0,1,2.5.622,5.66,5.66,0,0,1,2.1,1.681l3.974-4.341a11.422,11.422,0,0,0-3.993-2.457,13.014,13.014,0,0,0-4.466-.829,14.015,14.015,0,0,0-3.608.471A9.708,9.708,0,0,0,41.3,20.728a7.518,7.518,0,0,0-3.172,6.419,7.486,7.486,0,0,0,.566,3.079,6.706,6.706,0,0,0,1.5,2.151A8.033,8.033,0,0,0,42.3,33.83a20.716,20.716,0,0,0,2.424.982c.85.278,1.611.535,2.28.776a8.14,8.14,0,0,1,1.677.794,3.59,3.59,0,0,1,1.039.961,2.215,2.215,0,0,1,.366,1.286,2.933,2.933,0,0,1-.292,1.358,2.439,2.439,0,0,1-.784.906" transform="translate(34.824 17.735)" fill="#101820"/>
      <path id="Trazado_10" data-name="Trazado 10" d="M59.79,19.113,48.96,45.85h6.784l1.895-5.25h9.992l2.005,5.25h6.926L65.843,19.113Zm-.366,16.315,3.283-9.177,3.207,9.177Z" transform="translate(46.272 18.064)" fill="#101820"/>
    </g>
  </g>
</svg>
