<?xml version="1.0" standalone="no"?>
<!DOCTYPE svg PUBLIC "-//W3C//DTD SVG 20010904//EN"
 "http://www.w3.org/TR/2001/REC-SVG-20010904/DTD/svg10.dtd">
<svg version="1.0" xmlns="http://www.w3.org/2000/svg"
 width="288.000000pt" height="288.000000pt" viewBox="0 0 288.000000 288.000000"
 preserveAspectRatio="xMidYMid meet">
<metadata>
Created by potrace 1.14, written by Peter Selinger 2001-2017
</metadata>
<g transform="translate(0.000000,288.000000) scale(0.100000,-0.100000)"
fill="#000000" stroke="none">
<path d="M180 2860 c-11 -11 -24 -20 -30 -20 -5 0 -10 -7 -10 -15 0 -8 -5 -15
-11 -15 -7 0 -20 -10 -31 -22 -11 -13 -37 -42 -59 -65 l-39 -42 0 -1250 0
-1250 89 -91 89 -90 1269 0 1268 0 68 65 c37 35 67 69 67 74 0 5 7 11 15 15
13 5 15 156 15 1276 l0 1270 -86 88 -86 87 -1254 3 c-1245 2 -1254 2 -1274
-18z"/>
</g>
</svg>
